<?xml version="1.0" encoding="utf-8"?>
<svg xmlns="http://www.w3.org/2000/svg" version="1.1" id="Layer_1" x="0px" y="0px" viewBox="0 0 3026.26 506.2" style="enable-background:new 0 0 3026.26 506.2;" width="1000px">
  <style type="text/css">
	.st0{clip-path:url(#SVGID_4_);}
	.st1{clip-path:url(#SVGID_5_);}
	.st2{clip-path:url(#SVGID_6_);}
	.st3{clip-path:url(#SVGID_10_);}
	.st4{clip-path:url(#SVGID_11_);}
	.st5{clip-path:url(#SVGID_12_);fill:#839FB5;}
	.st6{clip-path:url(#SVGID_16_);}
	.st7{clip-path:url(#SVGID_17_);}
	.st8{clip-path:url(#SVGID_18_);fill:#8DB6D2;}
	.st9{clip-path:url(#SVGID_22_);}
	.st10{clip-path:url(#SVGID_23_);}
	.st11{clip-path:url(#SVGID_24_);fill:#8EC9A0;}
	.st12{clip-path:url(#SVGID_28_);}
	.st13{clip-path:url(#SVGID_29_);}
	.st14{clip-path:url(#SVGID_30_);fill:#DEE895;}
	.st15{clip-path:url(#SVGID_34_);}
	.st16{clip-path:url(#SVGID_35_);}
	.st17{clip-path:url(#SVGID_36_);fill:#2372A8;}
	.st18{clip-path:url(#SVGID_40_);}
	.st19{clip-path:url(#SVGID_41_);}
	.st20{clip-path:url(#SVGID_42_);fill:#219444;}
	.st21{clip-path:url(#SVGID_46_);}
	.st22{clip-path:url(#SVGID_47_);}
	.st23{clip-path:url(#SVGID_48_);fill:#BED735;}
	.st24{clip-path:url(#SVGID_52_);}
	.st25{clip-path:url(#SVGID_53_);}
	.st26{clip-path:url(#SVGID_54_);fill:#2372A8;}
	.st27{clip-path:url(#SVGID_58_);}
	.st28{clip-path:url(#SVGID_59_);}
	.st29{clip-path:url(#SVGID_60_);fill:#219444;}
	.st30{clip-path:url(#SVGID_64_);}
	.st31{clip-path:url(#SVGID_65_);}
	.st32{clip-path:url(#SVGID_66_);fill:#BED735;}
	.st33{clip-path:url(#SVGID_70_);}
	.st34{clip-path:url(#SVGID_71_);}
	.st35{clip-path:url(#SVGID_72_);fill:#2372A8;}
	.st36{clip-path:url(#SVGID_76_);}
	.st37{clip-path:url(#SVGID_77_);}
	.st38{clip-path:url(#SVGID_78_);fill:#219444;}
	.st39{clip-path:url(#SVGID_82_);}
	.st40{clip-path:url(#SVGID_83_);}
	.st41{clip-path:url(#SVGID_84_);fill:#BED735;}
	.st42{clip-path:url(#SVGID_88_);}
	.st43{clip-path:url(#SVGID_89_);}
	.st44{clip-path:url(#SVGID_90_);fill:#00416D;}
	.st45{clip-path:url(#SVGID_94_);}
	.st46{clip-path:url(#SVGID_95_);}
	.st47{clip-path:url(#SVGID_96_);fill:#00416D;}
	.st48{clip-path:url(#SVGID_100_);}
	.st49{clip-path:url(#SVGID_101_);}
	.st50{clip-path:url(#SVGID_102_);fill:#00416D;}
	.st51{clip-path:url(#SVGID_106_);}
	.st52{clip-path:url(#SVGID_107_);}
	.st53{clip-path:url(#SVGID_108_);fill:#00416D;}
	.st54{clip-path:url(#SVGID_112_);}
	.st55{clip-path:url(#SVGID_113_);}
	.st56{clip-path:url(#SVGID_114_);fill:#00416D;}
	.st57{clip-path:url(#SVGID_117_);}
	.st58{clip-path:url(#SVGID_118_);fill:#00416D;}
</style>
  <g>
    <defs>
      <rect id="SVGID_1_" x="78.65" y="28.97" width="2904" height="444"/>
    </defs>
    <defs>
      <path id="SVGID_2_" d="M2902.32,33.29h-60.42v8.2h25.45v52.24h9.52V41.49h25.45V33.29L2902.32,33.29z M2979.88,93.73V33.29h-9.44    l-12.72,24c-5.63,10.62-9.95,19.17-12.98,25.82h-0.17c-4.93-10.45-8.57-17.79-10.73-21.84l-14.89-27.97h-9.69v60.44h9.52v-15.8    c0-13.9-0.09-23.05-0.17-27.46h0.17c1.3,3.19,4.24,9.32,9,18.39l12.98,24.87h7.62l12.81-24.43c4.24-8.03,7.27-14.33,9.18-18.91    h0.17c-0.17,11.74-0.26,20.98-0.26,27.72v15.63H2979.88L2979.88,93.73z M2979.88,93.73"/>
    </defs>
    <defs>
      <rect id="SVGID_3_" x="78.65" y="-319.03" width="2904" height="792"/>
    </defs>
    <clipPath id="SVGID_4_">
      <rect x="78.65" y="28.97" width="2904" height="444" transform="matrix(1, 0, 0, 1, 0, 0)" style="overflow: visible;"/>
    </clipPath>
    <clipPath id="SVGID_5_" class="st0">
      <path d="M2902.32,33.29h-60.42v8.2h25.45v52.24h9.52V41.49h25.45V33.29L2902.32,33.29z M2979.88,93.73V33.29h-9.44    l-12.72,24c-5.63,10.62-9.95,19.17-12.98,25.82h-0.17c-4.93-10.45-8.57-17.79-10.73-21.84l-14.89-27.97h-9.69v60.44h9.52v-15.8    c0-13.9-0.09-23.05-0.17-27.46h0.17c1.3,3.19,4.24,9.32,9,18.39l12.98,24.87h7.62l12.81-24.43c4.24-8.03,7.27-14.33,9.18-18.91    h0.17c-0.17,11.74-0.26,20.98-0.26,27.72v15.63H2979.88L2979.88,93.73z M2979.88,93.73" transform="matrix(1, 0, 0, 1, 0, 0)" style="overflow: visible;"/>
    </clipPath>
    <clipPath id="SVGID_6_" class="st1">
      <rect x="78.65" y="-319.03" width="2904" height="792" transform="matrix(1, 0, 0, 1, 0, 0)" style="overflow: visible;"/>
    </clipPath>
    <rect x="2826.9" y="18.29" class="st2" width="167.98" height="90.44"/>
  </g>
  <g>
    <defs>
      <rect id="SVGID_7_" x="78.65" y="28.97" width="2904" height="444"/>
    </defs>
    <defs>
      <path id="SVGID_8_" d="M2364.09,28.97h-97.38v75.55h97.38V28.97L2364.09,28.97z M2364.09,28.97"/>
    </defs>
    <defs>
      <rect id="SVGID_9_" x="78.65" y="-319.03" width="2904" height="792"/>
    </defs>
    <clipPath id="SVGID_10_">
      <rect x="78.65" y="28.97" width="2904" height="444" transform="matrix(1, 0, 0, 1, 0, 0)" style="overflow: visible;"/>
    </clipPath>
    <clipPath id="SVGID_11_" class="st3">
      <path d="M2364.09,28.97h-97.38v75.55h97.38V28.97L2364.09,28.97z M2364.09,28.97" transform="matrix(1, 0, 0, 1, 0, 0)" style="overflow: visible;"/>
    </clipPath>
    <clipPath id="SVGID_12_" class="st4">
      <rect x="78.65" y="-319.03" width="2904" height="792" transform="matrix(1, 0, 0, 1, 0, 0)" style="overflow: visible;"/>
    </clipPath>
    <rect x="2251.71" y="13.97" class="st5" width="127.38" height="105.55"/>
  </g>
  <g>
    <defs>
      <rect id="SVGID_13_" x="78.65" y="28.97" width="2904" height="444"/>
    </defs>
    <defs>
      <path id="SVGID_14_" d="M2515.57,28.97h-97.38v75.55h97.38V28.97L2515.57,28.97z M2515.57,28.97"/>
    </defs>
    <defs>
      <rect id="SVGID_15_" x="78.65" y="-319.03" width="2904" height="792"/>
    </defs>
    <clipPath id="SVGID_16_">
      <rect x="78.65" y="28.97" width="2904" height="444" transform="matrix(1, 0, 0, 1, 0, 0)" style="overflow: visible;"/>
    </clipPath>
    <clipPath id="SVGID_17_" class="st6">
      <path d="M2515.57,28.97h-97.38v75.55h97.38V28.97L2515.57,28.97z M2515.57,28.97" transform="matrix(1, 0, 0, 1, 0, 0)" style="overflow: visible;"/>
    </clipPath>
    <clipPath id="SVGID_18_" class="st7">
      <rect x="78.65" y="-319.03" width="2904" height="792" transform="matrix(1, 0, 0, 1, 0, 0)" style="overflow: visible;"/>
    </clipPath>
    <rect x="2403.19" y="13.97" class="st8" width="127.38" height="105.55"/>
  </g>
  <g>
    <defs>
      <rect id="SVGID_19_" x="78.65" y="28.97" width="2904" height="444"/>
    </defs>
    <defs>
      <path id="SVGID_20_" d="M2667.05,28.97h-97.38v75.55h97.38V28.97L2667.05,28.97z M2667.05,28.97"/>
    </defs>
    <defs>
      <rect id="SVGID_21_" x="78.65" y="-319.03" width="2904" height="792"/>
    </defs>
    <clipPath id="SVGID_22_">
      <rect x="78.65" y="28.97" width="2904" height="444" transform="matrix(1, 0, 0, 1, 0, 0)" style="overflow: visible;"/>
    </clipPath>
    <clipPath id="SVGID_23_" class="st9">
      <path d="M2667.05,28.97h-97.38v75.55h97.38V28.97L2667.05,28.97z M2667.05,28.97" transform="matrix(1, 0, 0, 1, 0, 0)" style="overflow: visible;"/>
    </clipPath>
    <clipPath id="SVGID_24_" class="st10">
      <rect x="78.65" y="-319.03" width="2904" height="792" transform="matrix(1, 0, 0, 1, 0, 0)" style="overflow: visible;"/>
    </clipPath>
    <rect x="2554.67" y="13.97" class="st11" width="127.38" height="105.55"/>
  </g>
  <g>
    <defs>
      <rect id="SVGID_25_" x="78.65" y="28.97" width="2904" height="444"/>
    </defs>
    <defs>
      <path id="SVGID_26_" d="M2818.53,28.97h-97.38v75.55h97.38V28.97L2818.53,28.97z M2818.53,28.97"/>
    </defs>
    <defs>
      <rect id="SVGID_27_" x="78.65" y="-319.03" width="2904" height="792"/>
    </defs>
    <clipPath id="SVGID_28_">
      <rect x="78.65" y="28.97" width="2904" height="444" transform="matrix(1, 0, 0, 1, 0, 0)" style="overflow: visible;"/>
    </clipPath>
    <clipPath id="SVGID_29_" class="st12">
      <path d="M2818.53,28.97h-97.38v75.55h97.38V28.97L2818.53,28.97z M2818.53,28.97" transform="matrix(1, 0, 0, 1, 0, 0)" style="overflow: visible;"/>
    </clipPath>
    <clipPath id="SVGID_30_" class="st13">
      <rect x="78.65" y="-319.03" width="2904" height="792" transform="matrix(1, 0, 0, 1, 0, 0)" style="overflow: visible;"/>
    </clipPath>
    <rect x="2706.15" y="13.97" class="st14" width="127.38" height="105.55"/>
  </g>
  <g>
    <defs>
      <rect id="SVGID_31_" x="78.65" y="28.97" width="2904" height="444"/>
    </defs>
    <defs>
      <path id="SVGID_32_" d="M2515.57,385.13h-97.38v75.55h97.38V385.13L2515.57,385.13z M2515.57,385.13"/>
    </defs>
    <defs>
      <rect id="SVGID_33_" x="78.65" y="-319.03" width="2904" height="792"/>
    </defs>
    <clipPath id="SVGID_34_">
      <rect x="78.65" y="28.97" width="2904" height="444" transform="matrix(1, 0, 0, 1, 0, 0)" style="overflow: visible;"/>
    </clipPath>
    <clipPath id="SVGID_35_" class="st15">
      <path d="M2515.57,385.13h-97.38v75.55h97.38V385.13L2515.57,385.13z M2515.57,385.13" transform="matrix(1, 0, 0, 1, 0, 0)" style="overflow: visible;"/>
    </clipPath>
    <clipPath id="SVGID_36_" class="st16">
      <rect x="78.65" y="-319.03" width="2904" height="792" transform="matrix(1, 0, 0, 1, 0, 0)" style="overflow: visible;"/>
    </clipPath>
    <rect x="2403.19" y="370.13" class="st17" width="127.38" height="105.55"/>
  </g>
  <g>
    <defs>
      <rect id="SVGID_37_" x="78.65" y="28.97" width="2904" height="444"/>
    </defs>
    <defs>
      <path id="SVGID_38_" d="M2667.05,385.13h-97.38v75.55h97.38V385.13L2667.05,385.13z M2667.05,385.13"/>
    </defs>
    <defs>
      <rect id="SVGID_39_" x="78.65" y="-319.03" width="2904" height="792"/>
    </defs>
    <clipPath id="SVGID_40_">
      <rect x="78.65" y="28.97" width="2904" height="444" transform="matrix(1, 0, 0, 1, 0, 0)" style="overflow: visible;"/>
    </clipPath>
    <clipPath id="SVGID_41_" class="st18">
      <path d="M2667.05,385.13h-97.38v75.55h97.38V385.13L2667.05,385.13z M2667.05,385.13" transform="matrix(1, 0, 0, 1, 0, 0)" style="overflow: visible;"/>
    </clipPath>
    <clipPath id="SVGID_42_" class="st19">
      <rect x="78.65" y="-319.03" width="2904" height="792" transform="matrix(1, 0, 0, 1, 0, 0)" style="overflow: visible;"/>
    </clipPath>
    <rect x="2554.67" y="370.13" class="st20" width="127.38" height="105.55"/>
  </g>
  <g>
    <defs>
      <rect id="SVGID_43_" x="78.65" y="28.97" width="2904" height="444"/>
    </defs>
    <defs>
      <path id="SVGID_44_" d="M2818.53,385.13h-97.38v75.55h97.38V385.13L2818.53,385.13z M2818.53,385.13"/>
    </defs>
    <defs>
      <rect id="SVGID_45_" x="78.65" y="-319.03" width="2904" height="792"/>
    </defs>
    <clipPath id="SVGID_46_">
      <rect x="78.65" y="28.97" width="2904" height="444" transform="matrix(1, 0, 0, 1, 0, 0)" style="overflow: visible;"/>
    </clipPath>
    <clipPath id="SVGID_47_" class="st21">
      <path d="M2818.53,385.13h-97.38v75.55h97.38V385.13L2818.53,385.13z M2818.53,385.13" transform="matrix(1, 0, 0, 1, 0, 0)" style="overflow: visible;"/>
    </clipPath>
    <clipPath id="SVGID_48_" class="st22">
      <rect x="78.65" y="-319.03" width="2904" height="792" transform="matrix(1, 0, 0, 1, 0, 0)" style="overflow: visible;"/>
    </clipPath>
    <rect x="2706.15" y="370.13" class="st23" width="127.38" height="105.55"/>
  </g>
  <g>
    <defs>
      <rect id="SVGID_49_" x="78.65" y="28.97" width="2904" height="444"/>
    </defs>
    <defs>
      <path id="SVGID_50_" d="M2515.57,266.41h-97.38v75.55h97.38V266.41L2515.57,266.41z M2515.57,266.41"/>
    </defs>
    <defs>
      <rect id="SVGID_51_" x="78.65" y="-319.03" width="2904" height="792"/>
    </defs>
    <clipPath id="SVGID_52_">
      <rect x="78.65" y="28.97" width="2904" height="444" transform="matrix(1, 0, 0, 1, 0, 0)" style="overflow: visible;"/>
    </clipPath>
    <clipPath id="SVGID_53_" class="st24">
      <path d="M2515.57,266.41h-97.38v75.55h97.38V266.41L2515.57,266.41z M2515.57,266.41" transform="matrix(1, 0, 0, 1, 0, 0)" style="overflow: visible;"/>
    </clipPath>
    <clipPath id="SVGID_54_" class="st25">
      <rect x="78.65" y="-319.03" width="2904" height="792" transform="matrix(1, 0, 0, 1, 0, 0)" style="overflow: visible;"/>
    </clipPath>
    <rect x="2403.19" y="251.41" class="st26" width="127.38" height="105.55"/>
  </g>
  <g>
    <defs>
      <rect id="SVGID_55_" x="78.65" y="28.97" width="2904" height="444"/>
    </defs>
    <defs>
      <path id="SVGID_56_" d="M2667.05,266.41h-97.38v75.55h97.38V266.41L2667.05,266.41z M2667.05,266.41"/>
    </defs>
    <defs>
      <rect id="SVGID_57_" x="78.65" y="-319.03" width="2904" height="792"/>
    </defs>
    <clipPath id="SVGID_58_">
      <rect x="78.65" y="28.97" width="2904" height="444" transform="matrix(1, 0, 0, 1, 0, 0)" style="overflow: visible;"/>
    </clipPath>
    <clipPath id="SVGID_59_" class="st27">
      <path d="M2667.05,266.41h-97.38v75.55h97.38V266.41L2667.05,266.41z M2667.05,266.41" transform="matrix(1, 0, 0, 1, 0, 0)" style="overflow: visible;"/>
    </clipPath>
    <clipPath id="SVGID_60_" class="st28">
      <rect x="78.65" y="-319.03" width="2904" height="792" transform="matrix(1, 0, 0, 1, 0, 0)" style="overflow: visible;"/>
    </clipPath>
    <rect x="2554.67" y="251.41" class="st29" width="127.38" height="105.55"/>
  </g>
  <g>
    <defs>
      <rect id="SVGID_61_" x="78.65" y="28.97" width="2904" height="444"/>
    </defs>
    <defs>
      <path id="SVGID_62_" d="M2818.53,266.41h-97.38v75.55h97.38V266.41L2818.53,266.41z M2818.53,266.41"/>
    </defs>
    <defs>
      <rect id="SVGID_63_" x="78.65" y="-319.03" width="2904" height="792"/>
    </defs>
    <clipPath id="SVGID_64_">
      <rect x="78.65" y="28.97" width="2904" height="444" transform="matrix(1, 0, 0, 1, 0, 0)" style="overflow: visible;"/>
    </clipPath>
    <clipPath id="SVGID_65_" class="st30">
      <path d="M2818.53,266.41h-97.38v75.55h97.38V266.41L2818.53,266.41z M2818.53,266.41" transform="matrix(1, 0, 0, 1, 0, 0)" style="overflow: visible;"/>
    </clipPath>
    <clipPath id="SVGID_66_" class="st31">
      <rect x="78.65" y="-319.03" width="2904" height="792" transform="matrix(1, 0, 0, 1, 0, 0)" style="overflow: visible;"/>
    </clipPath>
    <rect x="2706.15" y="251.41" class="st32" width="127.38" height="105.55"/>
  </g>
  <g>
    <defs>
      <rect id="SVGID_67_" x="78.65" y="28.97" width="2904" height="444"/>
    </defs>
    <defs>
      <path id="SVGID_68_" d="M2515.57,147.69h-97.38v75.55h97.38V147.69L2515.57,147.69z M2515.57,147.69"/>
    </defs>
    <defs>
      <rect id="SVGID_69_" x="78.65" y="-319.03" width="2904" height="792"/>
    </defs>
    <clipPath id="SVGID_70_">
      <rect x="78.65" y="28.97" width="2904" height="444" transform="matrix(1, 0, 0, 1, 0, 0)" style="overflow: visible;"/>
    </clipPath>
    <clipPath id="SVGID_71_" class="st33">
      <path d="M2515.57,147.69h-97.38v75.55h97.38V147.69L2515.57,147.69z M2515.57,147.69" transform="matrix(1, 0, 0, 1, 0, 0)" style="overflow: visible;"/>
    </clipPath>
    <clipPath id="SVGID_72_" class="st34">
      <rect x="78.65" y="-319.03" width="2904" height="792" transform="matrix(1, 0, 0, 1, 0, 0)" style="overflow: visible;"/>
    </clipPath>
    <rect x="2403.19" y="132.69" class="st35" width="127.38" height="105.55"/>
  </g>
  <g>
    <defs>
      <rect id="SVGID_73_" x="78.65" y="28.97" width="2904" height="444"/>
    </defs>
    <defs>
      <path id="SVGID_74_" d="M2667.05,147.69h-97.38v75.55h97.38V147.69L2667.05,147.69z M2667.05,147.69"/>
    </defs>
    <defs>
      <rect id="SVGID_75_" x="78.65" y="-319.03" width="2904" height="792"/>
    </defs>
    <clipPath id="SVGID_76_">
      <rect x="78.65" y="28.97" width="2904" height="444" transform="matrix(1, 0, 0, 1, 0, 0)" style="overflow: visible;"/>
    </clipPath>
    <clipPath id="SVGID_77_" class="st36">
      <path d="M2667.05,147.69h-97.38v75.55h97.38V147.69L2667.05,147.69z M2667.05,147.69" transform="matrix(1, 0, 0, 1, 0, 0)" style="overflow: visible;"/>
    </clipPath>
    <clipPath id="SVGID_78_" class="st37">
      <rect x="78.65" y="-319.03" width="2904" height="792" transform="matrix(1, 0, 0, 1, 0, 0)" style="overflow: visible;"/>
    </clipPath>
    <rect x="2554.67" y="132.69" class="st38" width="127.38" height="105.55"/>
  </g>
  <g>
    <defs>
      <rect id="SVGID_79_" x="78.65" y="28.97" width="2904" height="444"/>
    </defs>
    <defs>
      <path id="SVGID_80_" d="M2818.53,147.69h-97.38v75.55h97.38V147.69L2818.53,147.69z M2818.53,147.69"/>
    </defs>
    <defs>
      <rect id="SVGID_81_" x="78.65" y="-319.03" width="2904" height="792"/>
    </defs>
    <clipPath id="SVGID_82_">
      <rect x="78.65" y="28.97" width="2904" height="444" transform="matrix(1, 0, 0, 1, 0, 0)" style="overflow: visible;"/>
    </clipPath>
    <clipPath id="SVGID_83_" class="st39">
      <path d="M2818.53,147.69h-97.38v75.55h97.38V147.69L2818.53,147.69z M2818.53,147.69" transform="matrix(1, 0, 0, 1, 0, 0)" style="overflow: visible;"/>
    </clipPath>
    <clipPath id="SVGID_84_" class="st40">
      <rect x="78.65" y="-319.03" width="2904" height="792" transform="matrix(1, 0, 0, 1, 0, 0)" style="overflow: visible;"/>
    </clipPath>
    <rect x="2706.15" y="132.69" class="st41" width="127.38" height="105.55"/>
  </g>
  <g>
    <defs>
      <rect id="SVGID_85_" x="78.65" y="28.97" width="2904" height="444"/>
    </defs>
    <defs>
      <path id="SVGID_86_" d="M320.68,124.11h-32.04c-42.94,0-81.12,16.32-113.16,48.28v-39.44h-96.8v327.73h96.8V304.98    c0-61.87,32.04-92.47,96.8-92.47h48.4V124.11L320.68,124.11z M320.68,124.11"/>
    </defs>
    <defs>
      <rect id="SVGID_87_" x="78.65" y="-319.03" width="2904" height="792"/>
    </defs>
    <clipPath id="SVGID_88_">
      <rect x="78.65" y="28.97" width="2904" height="444" transform="matrix(1, 0, 0, 1, 0, 0)" style="overflow: visible;"/>
    </clipPath>
    <clipPath id="SVGID_89_" class="st42">
      <path d="M320.68,124.11h-32.04c-42.94,0-81.12,16.32-113.16,48.28v-39.44h-96.8v327.73h96.8V304.98    c0-61.87,32.04-92.47,96.8-92.47h48.4V124.11L320.68,124.11z M320.68,124.11" transform="matrix(1, 0, 0, 1, 0, 0)" style="overflow: visible;"/>
    </clipPath>
    <clipPath id="SVGID_90_" class="st43">
      <rect x="78.65" y="-319.03" width="2904" height="792" transform="matrix(1, 0, 0, 1, 0, 0)" style="overflow: visible;"/>
    </clipPath>
    <rect x="63.69" y="109.11" class="st44" width="271.99" height="366.57"/>
  </g>
  <g>
    <defs>
      <rect id="SVGID_91_" x="78.65" y="28.97" width="2904" height="444"/>
    </defs>
    <defs>
      <path id="SVGID_92_" d="M733.82,398.13c-10.22,0.68-16.36,1.36-18.4,1.36c-17.04,0-20.45-6.8-20.45-34.68V258.06    c0-17,0-29.24-0.68-38.08c-0.68-16.32-6.82-41.48-19.77-57.11c-23.86-27.88-72.94-41.48-148.6-41.48    c-49.08,0-88.62,5.44-117.93,16.32c-59.3,21.76-77.03,53.72-80.44,104.71h96.11c1.36-19.72,8.18-34.68,21.13-44.88    c12.95-9.52,37.49-14.28,74.3-14.28c57.26,0,77.03,17.68,77.03,55.75v17.68l-147.92,10.2c-87.25,6.12-138.38,42.16-138.38,99.95    c0,67.99,59.99,102.67,158.15,102.67c51.12,0,95.43-13.6,132.24-41.48c8.18,25.16,32.72,38.08,74.3,38.08    c21.13,0,40.9-2.04,59.3-5.44V398.13L733.82,398.13z M596.13,336.93c0,15.64-9.54,30.6-28.63,45.56    c-19.09,15.64-44.31,23.12-75.66,23.12c-54.53,0-81.8-14.28-81.8-43.52c0-26.52,19.77-38.08,92.71-44.2l93.39-8.84V336.93    L596.13,336.93z M596.13,336.93"/>
    </defs>
    <defs>
      <rect id="SVGID_93_" x="78.65" y="-319.03" width="2904" height="792"/>
    </defs>
    <clipPath id="SVGID_94_">
      <rect x="78.65" y="28.97" width="2904" height="444" transform="matrix(1, 0, 0, 1, 0, 0)" style="overflow: visible;"/>
    </clipPath>
    <clipPath id="SVGID_95_" class="st45">
      <path d="M733.82,398.13c-10.22,0.68-16.36,1.36-18.4,1.36c-17.04,0-20.45-6.8-20.45-34.68V258.06    c0-17,0-29.24-0.68-38.08c-0.68-16.32-6.82-41.48-19.77-57.11c-23.86-27.88-72.94-41.48-148.6-41.48    c-49.08,0-88.62,5.44-117.93,16.32c-59.3,21.76-77.03,53.72-80.44,104.71h96.11c1.36-19.72,8.18-34.68,21.13-44.88    c12.95-9.52,37.49-14.28,74.3-14.28c57.26,0,77.03,17.68,77.03,55.75v17.68l-147.92,10.2c-87.25,6.12-138.38,42.16-138.38,99.95    c0,67.99,59.99,102.67,158.15,102.67c51.12,0,95.43-13.6,132.24-41.48c8.18,25.16,32.72,38.08,74.3,38.08    c21.13,0,40.9-2.04,59.3-5.44V398.13L733.82,398.13z M596.13,336.93c0,15.64-9.54,30.6-28.63,45.56    c-19.09,15.64-44.31,23.12-75.66,23.12c-54.53,0-81.8-14.28-81.8-43.52c0-26.52,19.77-38.08,92.71-44.2l93.39-8.84V336.93    L596.13,336.93z M596.13,336.93" transform="matrix(1, 0, 0, 1, 0, 0)" style="overflow: visible;"/>
    </clipPath>
    <clipPath id="SVGID_96_" class="st46">
      <rect x="78.65" y="-319.03" width="2904" height="792" transform="matrix(1, 0, 0, 1, 0, 0)" style="overflow: visible;"/>
    </clipPath>
    <rect x="294.83" y="106.39" class="st47" width="453.99" height="378.13"/>
  </g>
  <g>
    <defs>
      <rect id="SVGID_97_" x="78.65" y="28.97" width="2904" height="444"/>
    </defs>
    <defs>
      <path id="SVGID_98_" d="M1599.42,398.13c-10.22,0.68-16.36,1.36-18.4,1.36c-17.04,0-20.45-6.8-20.45-34.68V258.06    c0-17,0-29.24-0.68-38.08c-0.68-16.32-6.82-41.48-19.77-57.11c-23.86-27.88-72.94-41.48-148.6-41.48    c-49.08,0-88.62,5.44-117.93,16.32c-59.3,21.76-77.03,53.72-80.44,104.71h96.11c1.36-19.72,8.18-34.68,21.13-44.88    c12.95-9.52,37.49-14.28,74.3-14.28c57.26,0,77.03,17.68,77.03,55.75v17.68l-147.92,10.2c-87.25,6.12-138.38,42.16-138.38,99.95    c0,67.99,59.99,102.67,158.15,102.67c51.12,0,95.43-13.6,132.24-41.48c8.18,25.16,32.72,38.08,74.3,38.08    c21.13,0,40.9-2.04,59.3-5.44V398.13L1599.42,398.13z M1461.73,336.93c0,15.64-9.54,30.6-28.63,45.56    c-19.09,15.64-44.31,23.12-75.66,23.12c-54.53,0-81.8-14.28-81.8-43.52c0-26.52,19.77-38.08,92.71-44.2l93.39-8.84V336.93    L1461.73,336.93z M1461.73,336.93"/>
    </defs>
    <defs>
      <rect id="SVGID_99_" x="78.65" y="-319.03" width="2904" height="792"/>
    </defs>
    <clipPath id="SVGID_100_">
      <rect x="78.65" y="28.97" width="2904" height="444" transform="matrix(1, 0, 0, 1, 0, 0)" style="overflow: visible;"/>
    </clipPath>
    <clipPath id="SVGID_101_" class="st48">
      <path d="M1599.42,398.13c-10.22,0.68-16.36,1.36-18.4,1.36c-17.04,0-20.45-6.8-20.45-34.68V258.06    c0-17,0-29.24-0.68-38.08c-0.68-16.32-6.82-41.48-19.77-57.11c-23.86-27.88-72.94-41.48-148.6-41.48    c-49.08,0-88.62,5.44-117.93,16.32c-59.3,21.76-77.03,53.72-80.44,104.71h96.11c1.36-19.72,8.18-34.68,21.13-44.88    c12.95-9.52,37.49-14.28,74.3-14.28c57.26,0,77.03,17.68,77.03,55.75v17.68l-147.92,10.2c-87.25,6.12-138.38,42.16-138.38,99.95    c0,67.99,59.99,102.67,158.15,102.67c51.12,0,95.43-13.6,132.24-41.48c8.18,25.16,32.72,38.08,74.3,38.08    c21.13,0,40.9-2.04,59.3-5.44V398.13L1599.42,398.13z M1461.73,336.93c0,15.64-9.54,30.6-28.63,45.56    c-19.09,15.64-44.31,23.12-75.66,23.12c-54.53,0-81.8-14.28-81.8-43.52c0-26.52,19.77-38.08,92.71-44.2l93.39-8.84V336.93    L1461.73,336.93z M1461.73,336.93" transform="matrix(1, 0, 0, 1, 0, 0)" style="overflow: visible;"/>
    </clipPath>
    <clipPath id="SVGID_102_" class="st49">
      <rect x="78.65" y="-319.03" width="2904" height="792" transform="matrix(1, 0, 0, 1, 0, 0)" style="overflow: visible;"/>
    </clipPath>
    <rect x="1160.43" y="106.39" class="st50" width="453.99" height="378.13"/>
  </g>
  <g>
    <defs>
      <rect id="SVGID_103_" x="78.65" y="28.97" width="2904" height="444"/>
    </defs>
    <defs>
      <path id="SVGID_104_" d="M2240.98,243.78c0-32.64-11.59-60.51-34.08-84.31c-23.18-23.8-58.62-35.36-105.66-35.36    c-52.49,0-101.57,17.68-146.56,52.36c-25.22-34.68-66.12-52.36-122.7-52.36c-49.08,0-92.71,14.96-130.2,44.88v-36.04h-97.48    v327.73h97.48V286.62c0-25.16,9.54-47.6,29.31-65.95c19.09-18.36,44.31-27.2,75.66-27.2c44.99,0,67.48,25.84,67.48,77.51v189.7    h97.48v-176.1c0-24.48,9.54-45.56,29.31-63.91c19.09-18.36,43.63-27.2,73.62-27.2c51.81,0,68.85,29.24,68.85,77.51v189.7h97.48    V243.78L2240.98,243.78z M2240.98,243.78"/>
    </defs>
    <defs>
      <rect id="SVGID_105_" x="78.65" y="-319.03" width="2904" height="792"/>
    </defs>
    <clipPath id="SVGID_106_">
      <rect x="78.65" y="28.97" width="2904" height="444" transform="matrix(1, 0, 0, 1, 0, 0)" style="overflow: visible;"/>
    </clipPath>
    <clipPath id="SVGID_107_" class="st51">
      <path d="M2240.98,243.78c0-32.64-11.59-60.51-34.08-84.31c-23.18-23.8-58.62-35.36-105.66-35.36    c-52.49,0-101.57,17.68-146.56,52.36c-25.22-34.68-66.12-52.36-122.7-52.36c-49.08,0-92.71,14.96-130.2,44.88v-36.04h-97.48    v327.73h97.48V286.62c0-25.16,9.54-47.6,29.31-65.95c19.09-18.36,44.31-27.2,75.66-27.2c44.99,0,67.48,25.84,67.48,77.51v189.7    h97.48v-176.1c0-24.48,9.54-45.56,29.31-63.91c19.09-18.36,43.63-27.2,73.62-27.2c51.81,0,68.85,29.24,68.85,77.51v189.7h97.48    V243.78L2240.98,243.78z M2240.98,243.78" transform="matrix(1, 0, 0, 1, 0, 0)" style="overflow: visible;"/>
    </clipPath>
    <clipPath id="SVGID_108_" class="st52">
      <rect x="78.65" y="-319.03" width="2904" height="792" transform="matrix(1, 0, 0, 1, 0, 0)" style="overflow: visible;"/>
    </clipPath>
    <rect x="1589.31" y="109.11" class="st53" width="666.67" height="366.57"/>
  </g>
  <g>
    <defs>
      <rect id="SVGID_109_" x="78.65" y="28.97" width="2904" height="444"/>
    </defs>
    <defs>
      <path id="SVGID_110_" d="M1068.63,332.85c-7.5,12.92-14.31,23.8-21.13,32.64c-14.31,17-51.81,37.4-102.93,37.4    c-72.94,0-125.43-40.8-125.43-112.19c0-64.59,46.35-108.79,124.74-108.79c56.58,0,96.11,21.08,119.97,63.91l100.2-21.76    c-36.81-71.39-110.43-107.43-220.86-107.43c-64.08,0-117.25,14.96-160.19,44.88c-42.94,30.6-64.76,74.11-64.76,131.23    c0,56.43,21.81,100.63,65.44,131.23c42.94,30.6,96.11,46.24,159.51,46.24c106.34,0,188.14-40.8,226.31-111.51L1068.63,332.85    L1068.63,332.85z M1068.63,332.85"/>
    </defs>
    <defs>
      <rect id="SVGID_111_" x="78.65" y="-319.03" width="2904" height="792"/>
    </defs>
    <clipPath id="SVGID_112_">
      <rect x="78.65" y="28.97" width="2904" height="444" transform="matrix(1, 0, 0, 1, 0, 0)" style="overflow: visible;"/>
    </clipPath>
    <clipPath id="SVGID_113_" class="st54">
      <path d="M1068.63,332.85c-7.5,12.92-14.31,23.8-21.13,32.64c-14.31,17-51.81,37.4-102.93,37.4    c-72.94,0-125.43-40.8-125.43-112.19c0-64.59,46.35-108.79,124.74-108.79c56.58,0,96.11,21.08,119.97,63.91l100.2-21.76    c-36.81-71.39-110.43-107.43-220.86-107.43c-64.08,0-117.25,14.96-160.19,44.88c-42.94,30.6-64.76,74.11-64.76,131.23    c0,56.43,21.81,100.63,65.44,131.23c42.94,30.6,96.11,46.24,159.51,46.24c106.34,0,188.14-40.8,226.31-111.51L1068.63,332.85    L1068.63,332.85z M1068.63,332.85" transform="matrix(1, 0, 0, 1, 0, 0)" style="overflow: visible;"/>
    </clipPath>
    <clipPath id="SVGID_114_" class="st55">
      <rect x="78.65" y="-319.03" width="2904" height="792" transform="matrix(1, 0, 0, 1, 0, 0)" style="overflow: visible;"/>
    </clipPath>
    <rect x="703.26" y="101.63" class="st56" width="481.26" height="383.57"/>
  </g>
  <g>
    <defs>
      <rect id="SVGID_115_" x="78.65" y="28.97" width="2904" height="444"/>
    </defs>
    <defs>
      <path id="SVGID_116_" d="M2266.71,136.9h97.38v323.78h-97.38V136.9L2266.71,136.9z M2266.71,136.9"/>
    </defs>
    <clipPath id="SVGID_117_">
      <rect x="78.65" y="28.97" width="2904" height="444" transform="matrix(1, 0, 0, 1, 0, 0)" style="overflow: visible;"/>
    </clipPath>
    <clipPath id="SVGID_118_" class="st57">
      <path d="M2266.71,136.9h97.38v323.78h-97.38V136.9L2266.71,136.9z M2266.71,136.9" transform="matrix(1, 0, 0, 1, 0, 0)" style="overflow: visible;"/>
    </clipPath>
    <rect x="2251.71" y="121.9" class="st58" width="127.38" height="353.78"/>
  </g>
</svg>
